<svg width="25" height="24" viewBox="0 0 25 24" fill="none" xmlns="http://www.w3.org/2000/svg">
<g clip-path="url(#clip0_53_13)">
<g clip-path="url(#clip1_53_13)">
<path d="M12.5 23.25C18.7132 23.25 23.75 18.2132 23.75 12C23.75 5.7868 18.7132 0.75 12.5 0.75C6.2868 0.75 1.25 5.7868 1.25 12C1.25 18.2132 6.2868 23.25 12.5 23.25Z" stroke="#151514" stroke-width="1.5"/>
<path d="M13.517 5.55908C14.102 5.55908 14.3555 6.00758 14.3555 6.47558C14.3555 7.11908 13.907 7.68458 13.244 7.68458C12.737 7.68458 12.425 7.31408 12.4055 6.78758C12.4055 6.16358 12.8345 5.55908 13.517 5.55908ZM13.634 15.9526L13.8485 16.2646C12.9515 17.3566 11.528 18.2341 10.943 18.2341C10.5335 18.2341 10.2605 17.8831 10.592 16.4791L11.7035 11.5846C11.8205 11.0386 11.8205 10.8631 11.7035 10.8631C11.567 10.8631 10.9625 11.2336 10.553 11.5846L10.3775 11.2336C11.4695 10.1221 12.8345 9.28358 13.4 9.28358C13.829 9.28358 13.907 9.84908 13.6145 11.0581L12.464 16.0306C12.347 16.5766 12.386 16.7326 12.5225 16.7326C12.659 16.7326 13.166 16.3816 13.634 15.9526Z" fill="#151514"/>
</g>
</g>
<defs>
<clipPath id="clip0_53_13">
<rect width="24" height="24" fill="white" transform="translate(0.5)"/>
</clipPath>
<clipPath id="clip1_53_13">
<rect width="24" height="24" fill="white" transform="translate(0.5)"/>
</clipPath>
</defs>
</svg>
