<svg width="50" height="50" viewBox="0 0 50 50" fill="none" xmlns="http://www.w3.org/2000/svg">
<path d="M25 29.1667C29.5958 29.1667 33.3333 25.4292 33.3333 20.8333C33.3333 16.2375 29.5958 12.5 25 12.5C20.4042 12.5 16.6667 16.2375 16.6667 20.8333C16.6667 25.4292 20.4042 29.1667 25 29.1667ZM25 16.6667C27.2979 16.6667 29.1667 18.5354 29.1667 20.8333C29.1667 23.1313 27.2979 25 25 25C22.7021 25 20.8333 23.1313 20.8333 20.8333C20.8333 18.5354 22.7021 16.6667 25 16.6667Z" fill="#4A4A4A"/>
<path d="M23.7917 45.4458C24.1446 45.697 24.5669 45.832 25.0001 45.832C25.4332 45.832 25.8556 45.697 26.2084 45.4458C26.8417 44.9979 41.7271 34.25 41.6667 20.8333C41.6667 11.6437 34.1896 4.16663 25.0001 4.16663C15.8105 4.16663 8.33339 11.6437 8.33339 20.8229C8.27297 34.25 23.1584 44.9979 23.7917 45.4458ZM25.0001 8.33329C31.8938 8.33329 37.5001 13.9395 37.5001 20.8437C37.5438 30.0895 28.3584 38.3916 25.0001 41.1145C21.6438 38.3895 12.4563 30.0854 12.5001 20.8333C12.5001 13.9395 18.1063 8.33329 25.0001 8.33329Z" fill="#4A4A4A"/>
</svg>
