<svg width="35" height="35" viewBox="0 0 35 35" fill="none" xmlns="http://www.w3.org/2000/svg">
<path d="M28.35 18.9584C28.0291 18.9584 27.6937 18.8563 27.3729 18.7834C26.7231 18.6404 26.0846 18.4503 25.4625 18.2147C24.7859 17.9685 24.0423 17.9813 23.3746 18.2505C22.7069 18.5198 22.1624 19.0264 21.8458 19.673L21.525 20.3292C20.1048 19.5388 18.7996 18.5574 17.6458 17.4126C16.5009 16.2588 15.5196 14.9536 14.7291 13.5334L15.3416 13.1251C15.9882 12.8085 16.4949 12.264 16.7641 11.5963C17.0333 10.9286 17.0461 10.1849 16.8 9.50841C16.567 8.88532 16.377 8.24702 16.2312 7.59799C16.1583 7.27716 16.1 6.94174 16.0562 6.60632C15.8791 5.5791 15.3411 4.64886 14.539 3.98313C13.7369 3.3174 12.7235 2.95992 11.6812 2.97507H7.30621C6.67772 2.96917 6.05533 3.09876 5.48142 3.35501C4.9075 3.61127 4.39554 3.98817 3.98038 4.46007C3.56523 4.93196 3.25662 5.48777 3.07557 6.08966C2.89452 6.69154 2.84529 7.32537 2.93121 7.94799C3.70812 14.0575 6.49834 19.7341 10.8611 24.081C15.2239 28.4279 20.9106 31.1975 27.0229 31.9522H27.577C28.6524 31.9537 29.6908 31.5592 30.4937 30.8438C30.9551 30.4312 31.3236 29.9253 31.575 29.3597C31.8264 28.7941 31.9549 28.1815 31.952 27.5626V23.1876C31.9342 22.1746 31.5653 21.1992 30.9084 20.4279C30.2514 19.6566 29.3472 19.1372 28.35 18.9584ZM29.0791 27.7084C29.0789 27.9155 29.0345 28.1201 28.949 28.3087C28.8635 28.4973 28.7389 28.6655 28.5833 28.8022C28.4208 28.9436 28.2303 29.0492 28.0243 29.112C27.8182 29.1749 27.6012 29.1935 27.3875 29.1667C21.9259 28.4665 16.8528 25.9679 12.9685 22.0651C9.08421 18.1623 6.60973 13.0774 5.93538 7.61257C5.91301 7.39899 5.93376 7.18309 5.99639 6.97768C6.05901 6.77226 6.16225 6.58151 6.29996 6.41674C6.43662 6.26118 6.60484 6.13651 6.79343 6.05101C6.98202 5.96552 7.18665 5.92117 7.39371 5.92091H11.7687C12.1078 5.91336 12.439 6.02427 12.7052 6.23455C12.9713 6.44483 13.1559 6.74132 13.227 7.07299C13.2854 7.4716 13.3583 7.86535 13.4458 8.25424C13.6137 9.02315 13.8379 9.77866 14.1166 10.5147L12.075 11.4626C11.9004 11.5427 11.7434 11.6565 11.6129 11.7974C11.4824 11.9383 11.3811 12.1037 11.3147 12.2839C11.2483 12.4641 11.2182 12.6557 11.226 12.8476C11.2338 13.0395 11.2795 13.228 11.3604 13.4022C13.4602 17.8971 17.0738 21.5106 21.5687 23.6105C21.9238 23.7563 22.322 23.7563 22.677 23.6105C22.8589 23.5454 23.0261 23.4449 23.1688 23.3147C23.3115 23.1845 23.4269 23.0273 23.5083 22.8522L24.4125 20.8105C25.1667 21.0791 25.9361 21.3031 26.7166 21.4813C27.1055 21.5688 27.4993 21.6417 27.8979 21.7001C28.2295 21.7712 28.526 21.9558 28.7363 22.2219C28.9466 22.4881 29.0575 22.8193 29.05 23.1584L29.0791 27.7084Z" fill="black"/>
</svg>
