<svg width="19" height="24" viewBox="0 0 19 24" fill="none" xmlns="http://www.w3.org/2000/svg">
<g clip-path="url(#clip0_107_6)">
<path fill-rule="evenodd" clip-rule="evenodd" d="M16.7126 21.9972C15.2702 21.9441 11.1823 21.3792 6.90103 17.0999C2.62079 12.8195 2.05684 8.73345 2.00275 7.2903C1.92261 5.09104 3.60746 2.95486 5.55375 2.12062C5.78812 2.01944 6.04478 1.98092 6.29854 2.00883C6.5523 2.03675 6.79444 2.13015 7.0012 2.27986C8.60391 3.4476 9.70977 5.21422 10.6594 6.60328C10.8683 6.90847 10.9577 7.27984 10.9104 7.64663C10.8631 8.01343 10.6825 8.35001 10.4029 8.59224L8.44864 10.0434C8.35423 10.1116 8.28776 10.2117 8.2616 10.3251C8.23544 10.4386 8.25136 10.5577 8.3064 10.6603C8.74915 11.4645 9.53648 12.6623 10.438 13.5636C11.3395 14.465 12.5947 15.3042 13.4551 15.7969C13.563 15.8575 13.69 15.8744 13.81 15.8442C13.9299 15.8141 14.0338 15.7391 14.1002 15.6347L15.3723 13.6988C15.6062 13.3882 15.9513 13.1801 16.3352 13.1181C16.7191 13.0562 17.112 13.1451 17.4318 13.3663C18.8412 14.3418 20.486 15.4284 21.69 16.9697C21.8519 17.1779 21.9549 17.4258 21.9882 17.6874C22.0215 17.949 21.9839 18.2148 21.8793 18.4569C21.0409 20.4128 18.9193 22.0783 16.7126 21.9972Z" fill="#64401C"/>
</g>
<defs>
<clipPath id="clip0_107_6">
<rect width="18.4082" height="24" fill="white"/>
</clipPath>
</defs>
</svg>
