<svg width="1142" height="88" viewBox="0 0 1142 88" fill="none" xmlns="http://www.w3.org/2000/svg">
<path d="M16.1855 37.8309C17.4153 38.7673 18.6985 39.6989 20.011 40.6216C21.3984 41.597 22.8183 42.5625 24.2431 43.5172C25.6333 44.4487 27.0276 45.3699 28.4021 46.2825C30.1471 47.444 32.0368 48.6739 33.8028 49.8084C35.6554 50.9995 37.4841 52.1624 39.2563 53.2968C40.3476 53.9955 41.4179 54.6837 42.4556 55.3595C42.5728 55.4358 42.6902 55.5121 42.8075 55.5881C43.4504 56.0049 44.099 56.423 44.7579 56.8443C46.5342 57.9794 48.3851 59.1409 50.4354 60.3632C51.6745 61.1013 52.9899 61.8629 54.4163 62.6489C55.0083 62.9752 55.6272 63.3103 56.264 63.6458C56.3277 63.6793 56.3916 63.7129 56.4557 63.7465C58.298 64.7202 60.7074 65.8837 63.0618 66.8849C67.0958 68.6467 72.6622 70.7745 78.8374 72.7043C79.2724 72.8403 79.7064 72.9738 80.1399 73.1051C86.1796 74.9334 92.0394 76.3043 97.5905 77.3426C103.885 78.5189 109.781 79.2692 115.147 79.7556C121.87 80.3629 127.76 80.5591 132.622 80.5951C138.53 80.6347 142.923 80.4419 145.48 80.3242C146.947 80.2552 148.419 80.1833 149.903 80.1082C155.337 79.8321 161.101 79.5055 166.964 79.1093C169.733 78.9263 172.894 78.6466 175.833 78.3237C178.652 78.0161 181.517 77.6535 184.45 77.2386C187.195 76.8504 189.998 76.4164 192.873 75.9387C195.563 75.4919 198.315 75.0067 201.138 74.4859C201.289 74.4581 201.439 74.4302 201.59 74.4022C203.635 74.0234 205.719 73.6286 207.841 73.2149C208.351 73.1154 208.846 73.0683 209.292 73.0692C210.343 73.0718 211.132 73.3396 211.252 73.8066C211.378 74.2927 210.743 74.8594 209.72 75.26C209.345 75.4071 208.914 75.5325 208.452 75.6225C206.37 76.0289 204.324 76.4203 202.319 76.7927C202.31 76.7944 202.301 76.7961 202.292 76.7978C202.056 76.8415 201.821 76.8851 201.586 76.9284C198.744 77.4528 195.977 77.9406 193.277 78.3893C190.375 78.8715 187.551 79.3086 184.79 79.6992C181.822 80.1191 178.929 80.4851 176.086 80.7954C173.112 81.1226 169.882 81.4078 167.098 81.592C161.191 81.9927 155.388 82.3239 149.942 82.6066C148.74 82.6688 147.544 82.729 146.354 82.7874C143.644 82.9172 138.922 83.1344 132.541 83.0852C127.604 83.0434 121.67 82.8384 114.922 82.227C109.496 81.7338 103.543 80.9761 97.1898 79.7925C91.5742 78.7456 85.6459 77.3648 79.5288 75.5235C78.8404 75.3162 78.1505 75.1033 77.4569 74.884C71.5834 73.027 66.1028 70.9403 62.2053 69.2404C59.7989 68.2231 57.2933 67.0208 55.4192 66.0328C55.0227 65.8259 54.6419 65.6237 54.2658 65.4217C53.633 65.0817 53.0316 64.7496 52.4473 64.4225C52.4337 64.4147 52.4201 64.407 52.4065 64.3992C51.2912 63.7739 50.2579 63.1727 49.2793 62.5902C47.1491 61.3207 45.2832 60.1457 43.5177 59.0144C42.6509 58.4585 41.809 57.9126 40.9761 57.3693C40.9055 57.324 40.835 57.2786 40.7645 57.2332C39.8458 56.6322 38.9069 56.0244 37.9544 55.4107C36.1581 54.2532 34.3127 53.074 32.4488 51.872C30.664 50.7222 28.745 49.4713 26.9942 48.3064C25.6174 47.3929 24.2203 46.4717 22.8271 45.5403C21.393 44.5817 19.9637 43.6127 18.5681 42.634C17.2218 41.69 15.9069 40.7371 14.6503 39.7799C14.5254 39.6847 14.4048 39.5877 14.2891 39.4895C13.028 38.4208 12.3406 37.2146 12.7388 36.7301C13.1316 36.2519 14.4313 36.6274 15.7585 37.5243C15.9008 37.6205 16.0435 37.7229 16.1855 37.8309ZM634.639 51.0244C636.637 51.1326 638.768 51.3014 640.987 51.516C645.273 51.931 649.888 52.5149 654.506 53.1864C658.374 53.7492 662.245 54.3752 665.925 55.0217C666.581 55.1369 667.232 55.253 667.878 55.3698C672.739 56.2475 677.255 57.1635 681.1 58.0138C684.881 58.849 687.951 59.6029 689.97 60.1334C692.268 60.7374 694.722 61.2855 697.395 61.828C699.669 62.2894 702.102 62.7469 704.734 63.2317C706.048 63.4735 707.411 63.7221 708.822 63.9806C710.438 64.2767 712.117 64.5861 713.859 64.9134C717.141 65.5299 720.645 66.2102 724.362 66.9826C726.428 67.4119 728.426 67.8221 730.358 68.2133C736.524 69.4625 742.024 70.5169 746.954 71.4052C753.457 72.5778 758.967 73.4627 763.706 74.1588C765.637 74.4425 767.439 74.695 769.13 74.9233C771.177 75.1997 773.101 75.4454 774.897 75.6685C774.9 75.6689 774.903 75.6693 774.906 75.6697C776.966 75.9254 778.857 76.151 780.618 76.3635C783.885 76.7576 786.869 77.0773 789.529 77.4227C790.238 77.5143 790.932 77.6082 791.616 77.7063C793.954 78.0411 796.161 78.3379 798.302 78.6252C801.256 79.0211 804.084 79.3985 806.947 79.8152C809.448 80.1793 811.977 80.5724 814.63 81.0338C814.894 81.0797 815.16 81.1251 815.429 81.17C818.029 81.6048 820.847 81.9941 823.74 82.3631C826.456 82.7086 829.09 83.0226 831.876 83.3573C835.127 83.7484 838.519 84.0444 841.639 84.2242C845.163 84.429 848.486 84.5035 851.4 84.472C851.54 84.4705 851.679 84.4687 851.817 84.4667C852.402 84.4583 853 84.4467 853.605 84.4353C855.929 84.3912 858.41 84.3267 861.125 84.2476C864.044 84.1625 867.235 84.0606 870.792 83.9443C873.73 83.8481 876.917 83.7419 880.409 83.6253C881.818 83.5782 883.277 83.5293 884.789 83.4788C886.563 83.4198 888.299 83.3661 889.984 83.3178C893.03 83.2301 895.968 83.1754 898.804 83.1454C901.859 83.113 904.796 83.1091 907.623 83.1233C910.243 83.1364 912.768 83.1649 915.207 83.2005C915.622 83.2066 916.034 83.2129 916.443 83.2193C918.536 83.2525 920.549 83.2905 922.495 83.3259C923.433 83.3429 924.355 83.3597 925.263 83.3756C928.354 83.4298 931.277 83.4742 934.083 83.486C935.611 83.4924 937.104 83.4892 938.57 83.4726C940.044 83.456 941.488 83.4412 942.903 83.4281C947.372 83.3877 951.476 83.4479 955.433 83.5367C960.018 83.6418 964.27 83.7852 968.211 83.9153C972.995 84.0752 977.318 84.2167 981.226 84.3163C986.318 84.448 990.704 84.5111 994.506 84.5273C996.015 84.5341 997.433 84.5338 998.765 84.5289C1002.46 84.5148 1005.53 84.4673 1008.13 84.4168C1011.91 84.3383 1014.64 84.2722 1017 84.1603C1018.18 84.1045 1019.21 84.0459 1020.16 83.9653C1020.87 83.9051 1021.55 83.8389 1022.23 83.7671C1025.26 83.4511 1028.43 82.9612 1031.42 82.4208C1034.36 81.8873 1037.31 81.2656 1040.38 80.5651C1041.73 80.2564 1043.1 79.9322 1044.51 79.5932C1046.01 79.2318 1047.55 78.8529 1049.13 78.4584C1049.57 78.35 1050.01 78.2404 1050.45 78.1297C1053.15 77.4528 1055.54 76.7774 1057.67 76.1259C1060.95 75.1229 1063.63 74.1765 1065.9 73.3299C1065.9 73.3297 1065.9 73.3295 1065.9 73.3293C1067.54 72.7184 1068.97 72.158 1070.3 71.6368C1070.32 71.6269 1070.35 71.6169 1070.37 71.607C1070.55 71.5344 1070.74 71.4635 1070.92 71.3923C1071.06 71.3385 1071.2 71.2824 1071.33 71.2288C1071.39 71.1994 1071.43 71.1759 1071.47 71.1574C1071.5 71.1427 1071.52 71.1316 1071.53 71.1245C1071.53 71.1226 1071.54 71.1208 1071.54 71.1189C1071.79 70.9888 1072.01 70.898 1072.06 70.8792C1072.14 70.8465 1072.21 70.8204 1072.25 70.8065C1072.44 70.7331 1072.7 70.6463 1072.87 70.5895C1073.1 70.5101 1073.43 70.4003 1073.87 70.2557C1074.22 70.1435 1074.63 70.0126 1075.08 69.8712C1075.93 69.5835 1076.78 69.2785 1077.93 68.8883C1078 68.8636 1078.07 68.8389 1078.15 68.8142C1078.27 68.7721 1078.4 68.7292 1078.53 68.6855C1079.57 68.3362 1080.81 67.9366 1082.39 67.4556C1082.84 67.3185 1083.3 67.2254 1083.73 67.1746C1084.85 67.0428 1085.83 67.1955 1086.12 67.6281C1086.48 68.1613 1085.66 68.9467 1084.31 69.4639C1084.15 69.5268 1083.98 69.5858 1083.8 69.6399C1082.1 70.1553 1080.83 70.5665 1079.7 70.9426C1079.63 70.9667 1079.55 70.9908 1079.48 71.0149C1079.38 71.0495 1079.28 71.0839 1079.18 71.1181C1078.14 71.4673 1077.12 71.8157 1076.21 72.1229C1075.86 72.2391 1075.5 72.3586 1075.13 72.4781C1074.97 72.5351 1074.81 72.5965 1074.63 72.6627C1074.04 72.8793 1073.39 73.1282 1072.66 73.413C1072.46 73.4892 1072.26 73.5662 1072.06 73.6467C1070.74 74.161 1069.19 74.7721 1067.41 75.4346C1067.17 75.5251 1066.92 75.6164 1066.67 75.7088C1064.34 76.5647 1061.64 77.5031 1058.43 78.4871C1056.05 79.216 1053.39 79.9702 1050.38 80.7213C1050.21 80.7632 1050.04 80.805 1049.88 80.8466C1048.08 81.2932 1046.33 81.7255 1044.6 82.1405C1043.41 82.4251 1042.24 82.7015 1041.07 82.9688C1038.03 83.6664 1035.05 84.3025 1032.04 84.8573C1029.04 85.4096 1025.8 85.9288 1022.76 86.2673C1021.49 86.4112 1020.17 86.5385 1018.8 86.6436C1017.51 86.7417 1016.23 86.8011 1014.91 86.8411C1013.03 86.8939 1011 86.9179 1008.41 86.9516C1005.7 86.9836 1002.37 87.0264 998.039 87.0286C996.958 87.0288 995.817 87.0261 994.61 87.0193C990.835 86.9985 986.417 86.9344 981.218 86.7988C977.316 86.6985 972.974 86.5564 968.149 86.3951C964.216 86.2653 959.962 86.1221 955.372 86.0173C951.428 85.9293 947.361 85.87 942.903 85.911C941.585 85.9234 940.241 85.9372 938.871 85.9527C937.311 85.9703 935.715 85.9734 934.083 85.9661C931.249 85.9534 928.307 85.9095 925.263 85.8565C924.22 85.8384 923.166 85.8192 922.099 85.7998C920.25 85.7662 918.363 85.7336 916.443 85.7038C915.997 85.6969 915.549 85.6902 915.099 85.6836C912.685 85.6484 910.196 85.6202 907.623 85.6074C904.789 85.5932 901.853 85.5976 898.804 85.6314C895.965 85.6629 893.028 85.72 889.984 85.8114C888.536 85.8546 887.05 85.9021 885.53 85.9538C883.734 86.0151 882.025 86.074 880.38 86.1306C876.864 86.2515 873.667 86.362 870.726 86.4623C867.151 86.5841 863.952 86.6914 861.014 86.7804C858.827 86.8467 856.784 86.9027 854.836 86.9446C854.57 86.9511 854.303 86.9573 854.036 86.9632C853.705 86.9698 853.376 86.9759 853.049 86.9815C852.461 86.9916 851.857 86.9977 851.238 86.9995C848.256 87.0086 844.928 86.9189 841.421 86.7069C838.279 86.5187 834.858 86.216 831.593 85.8226C828.838 85.4912 826.258 85.1846 823.534 84.8443C820.708 84.4902 817.915 84.1178 815.265 83.7036C814.493 83.5828 813.733 83.4586 812.988 83.3303C810.863 82.9646 808.82 82.642 806.797 82.3406C803.931 81.9138 801.107 81.5306 798.133 81.1286C795.739 80.8046 793.247 80.4691 790.553 80.0779C790.142 80.0181 789.727 79.9602 789.307 79.9034C786.725 79.5521 783.789 79.2438 780.31 78.8283C778.772 78.6442 777.09 78.4443 775.213 78.2125C773.343 77.9816 771.272 77.716 769.008 77.4108C767.243 77.173 765.36 76.9094 763.342 76.6127C758.57 75.9113 753.043 75.0233 746.552 73.8544C741.604 72.9639 736.096 71.9092 729.937 70.6633C727.879 70.2473 725.748 69.8101 723.542 69.3515C719.962 68.6076 716.615 67.9571 713.439 67.3603C711.725 67.0383 710.062 66.7318 708.44 66.4344C707.002 66.1709 705.592 65.9127 704.212 65.6586C701.727 65.2011 699.32 64.751 696.992 64.2839C693.936 63.6706 691.01 63.0269 688.232 62.2991C686.526 61.8526 683.94 61.2171 680.731 60.5003C676.982 59.6621 672.468 58.7343 667.54 57.8384C666.743 57.6932 665.936 57.5489 665.121 57.406C661.513 56.7728 657.808 56.1754 654.17 55.6459C649.414 54.9541 644.775 54.3756 640.623 53.9997C638.971 53.8504 637.396 53.7337 635.922 53.657C635.088 53.6137 634.247 53.5667 633.407 53.5187C631.218 53.3939 629.012 53.2563 626.829 53.123C621.869 52.8218 617.03 52.5358 612.783 52.5191C612.715 52.5188 612.647 52.5187 612.58 52.5186C608.338 52.8491 603.396 52.7149 598.354 52.2132C595.975 51.9776 593.351 51.5962 590.829 51.1646C588.408 50.7475 585.951 50.2527 583.473 49.6916C581.09 49.1519 578.687 48.5509 576.275 47.8997C573.929 47.2665 571.575 46.5857 569.221 45.8686C566.91 45.1645 564.6 44.4255 562.297 43.662C560.023 42.908 557.736 42.1231 555.491 41.335C553.888 40.7828 552.934 40.5022 551.31 40.0764C549.813 39.6903 548.215 39.3383 546.525 39.0101C544.819 38.6786 543.02 38.3712 541.142 38.0692C539.235 37.7623 537.247 37.4607 535.197 37.1383C533.1 36.8086 530.938 36.4568 528.73 36.0519C526.538 35.651 523.94 35.1225 521.794 34.5981C521.794 34.598 521.794 34.5981 521.794 34.598C518.032 33.6817 515.193 33.1816 511.771 32.767C511.593 32.7458 511.414 32.725 511.235 32.7047C511.064 32.6853 510.892 32.6663 510.72 32.6477C507.126 32.2593 503.538 32.0663 499.997 31.9994C495.971 31.9238 492.008 32.0096 488.156 32.167C483.867 32.3435 479.716 32.6073 475.762 32.8703C471.155 33.179 466.813 33.4847 462.822 33.7182C457.744 34.0216 452.946 34.2109 449.317 34.2702C446.018 34.3289 443.462 34.4037 441.644 34.461C441.24 34.4737 440.874 34.4859 440.543 34.4968C440.249 34.5066 439.982 34.5169 439.746 34.5248C437.122 34.6133 434.718 34.7538 432.313 34.9188C431.469 34.9768 430.624 35.0378 429.769 35.1012C429.589 35.1145 429.409 35.128 429.23 35.1415C425.752 35.4016 422.101 35.6892 417.772 35.9446C416.93 35.9944 416.095 36.0453 415.268 36.0973C409.16 36.4813 403.478 36.9191 398.155 37.374C391.985 37.902 386.298 38.4532 380.988 38.9952C379.653 39.1316 378.341 39.2676 377.051 39.4027C374.933 39.6246 372.872 39.8423 370.861 40.059C370.855 40.0596 370.849 40.0602 370.844 40.0607C368.413 40.3228 366.055 40.5803 363.759 40.8313C357.72 41.4918 352.105 42.1065 346.682 42.6541C346.604 42.662 346.525 42.6699 346.447 42.6778C342.45 43.0897 339.322 43.593 336.085 44.1935C332.097 44.9437 328.599 45.7644 325.48 46.557C323.401 47.0867 321.49 47.6073 319.708 48.1098C317.928 48.6121 316.26 49.1011 314.67 49.5759C314.411 49.6533 314.155 49.7303 313.899 49.8069C310.243 50.9069 306.978 51.9253 303.604 52.9244C303.346 53.0009 303.087 53.0772 302.828 53.1535C299.197 54.2206 295.679 55.2909 292.197 56.338C289.092 57.2721 285.995 58.1943 282.851 59.0848C282.265 59.251 281.681 59.4137 281.104 59.5745C280.869 59.64 280.634 59.7049 280.401 59.7694C276.938 60.7266 273.312 61.6712 269.783 62.5326C266.415 63.3543 263.01 64.1308 259.522 64.8638C259.409 64.8875 259.297 64.9085 259.186 64.927C257.603 65.1911 256.25 64.9288 256.087 64.3083C255.922 63.6708 257.069 62.8862 258.68 62.5058C258.747 62.4901 258.814 62.475 258.883 62.4607C262.393 61.7236 265.821 60.9411 269.234 60.1068C272.718 59.2548 276.305 58.3195 279.797 57.3538C279.86 57.3364 279.923 57.319 279.986 57.3015C280.562 57.142 281.144 56.9777 281.731 56.812C284.974 55.8972 288.247 54.9259 291.531 53.9399C294.91 52.926 298.347 51.8833 301.896 50.84C302.241 50.7386 302.584 50.6372 302.926 50.5357C306.074 49.6008 309.103 48.6559 312.604 47.5984C313.068 47.4583 313.541 47.3164 314.023 47.1724C315.465 46.7421 316.992 46.2935 318.64 45.8266C320.566 45.281 322.642 44.7138 324.913 44.1363C328.073 43.3346 331.615 42.5058 335.648 41.7481C338.926 41.1399 342.161 40.622 346.198 40.2072C346.234 40.2035 346.271 40.1998 346.307 40.1961C351.752 39.6463 357.393 39.029 363.515 38.3597C365.705 38.1203 367.958 37.8744 370.284 37.6232C372.309 37.4047 374.392 37.182 376.538 36.9569C377.919 36.8121 379.325 36.6663 380.76 36.5199C386.074 35.9779 391.771 35.4263 397.956 34.8977C403.29 34.4424 408.986 34.0041 415.11 33.6193C415.909 33.5691 416.715 33.5199 417.529 33.4717C421.63 33.2294 425.103 32.9546 428.577 32.6925C428.772 32.6781 428.967 32.6638 429.162 32.6496C430.169 32.5745 431.179 32.5009 432.208 32.4311C434.521 32.274 436.918 32.1358 439.522 32.0476C440.024 32.0306 440.662 32.0105 441.43 31.9861C443.284 31.9274 445.9 31.8502 449.275 31.7901C452.895 31.7306 457.615 31.544 462.67 31.2424C466.642 31.01 470.972 30.7051 475.583 30.3961C479.542 30.1327 483.709 29.8674 488.031 29.6892C491.915 29.5301 495.923 29.4423 500.011 29.5182C503.638 29.5859 507.327 29.7836 511.036 30.1861C511.134 30.1971 511.232 30.2083 511.33 30.2196C511.378 30.2249 511.425 30.2302 511.472 30.2355C515.659 30.7165 518.787 31.2766 522.342 32.0945C524.62 32.6247 527.112 33.0969 529.147 33.4421C531.471 33.8369 533.599 34.1473 535.559 34.4226C537.748 34.7289 539.727 34.9906 541.533 35.2401C543.574 35.5211 545.395 35.7855 547.043 36.0494C548.925 36.3501 550.582 36.649 552.077 36.9491C553.414 37.2184 554.558 37.4715 555.601 37.7126C555.938 37.7928 556.295 37.8848 556.664 37.9881C559.14 38.7031 561.438 39.3886 563.549 40.0294C566.076 40.7968 568.361 41.5083 570.458 42.1664C571.711 42.5594 572.896 42.9334 574.027 43.2889C574.958 43.5815 575.841 43.8563 576.684 44.118C576.93 44.1942 577.172 44.2691 577.411 44.3428C580.026 45.1494 582.273 45.8135 584.467 46.3778C585.049 46.5274 585.627 46.6698 586.207 46.8057C588.129 47.2555 589.951 47.6427 591.708 47.9754C594.252 48.4555 596.772 48.849 599.117 49.1074C602.624 49.4903 606.253 49.7133 610.04 49.7414C611.107 49.7511 612.206 49.7763 613.327 49.8129C617.798 49.9603 622.628 50.2805 627.257 50.5757C628.915 50.6818 630.546 50.7857 632.126 50.8801C632.137 50.8807 632.148 50.8814 632.158 50.882C633.001 50.9323 633.83 50.9805 634.639 51.0244ZM1108.46 56.1833C1109.95 55.3378 1111.44 55.1274 1111.77 55.7257C1112.1 56.3263 1111.14 57.5116 1109.65 58.3573C1109.37 58.5175 1109.09 58.6772 1108.81 58.8368C1106.84 59.9753 1104.14 61.2783 1102.07 62.1256C1099.86 63.0423 1097.71 63.8036 1095.62 64.4706C1095.55 64.4917 1095.48 64.5126 1095.42 64.5335C1093.48 65.1454 1091.84 65.0226 1091.66 64.3629C1091.49 63.6972 1092.83 62.7517 1094.71 62.1543C1094.76 62.1412 1094.8 62.1281 1094.84 62.1149C1096.88 61.4649 1098.96 60.7267 1101.09 59.8435C1103.11 59.0188 1105.65 57.7968 1107.56 56.6939C1107.86 56.524 1108.16 56.3538 1108.46 56.1833ZM629.517 37.6933C631.177 37.8317 632.741 38.5238 633.008 39.2465C633.274 39.968 632.136 40.4512 630.468 40.3163C630.085 40.2853 629.594 40.2475 629.002 40.2018C628.23 40.1423 627.286 40.0696 626.181 39.9802C623.509 39.7629 619.894 39.4515 615.508 38.9622C611.596 38.5242 607.074 37.9449 602.059 37.1268C599.815 36.7606 597.471 36.3384 595.045 35.8612C592.786 35.4171 590.456 34.925 588.062 34.3867C585.8 33.878 583.482 33.3281 581.116 32.74C578.854 32.178 576.549 31.5812 574.206 30.9536C571.947 30.3486 569.654 29.7151 567.33 29.0571C565.077 28.419 562.791 27.7568 560.488 27.079C558.6 26.5274 556.782 26.1041 554.829 25.7218C552.929 25.3523 550.989 25.0506 549.014 24.791C547.066 24.5348 545.084 24.3194 543.071 24.116C541.081 23.9146 539.06 23.7248 537.014 23.5152C535.063 23.3154 533.088 23.0975 531.094 22.8318C531.012 22.821 530.931 22.8101 530.849 22.7991C528.679 22.508 526.54 22.1683 524.595 21.7959C524.594 21.7959 524.595 21.7959 524.595 21.7959C523.424 21.5739 522.303 21.3856 521.206 21.2197C518.264 20.7772 515.377 20.5589 512.407 20.478C508.601 20.3774 504.646 20.4956 500.062 20.7519C496.409 20.9573 492.356 21.2574 487.626 21.6316C483.896 21.9251 479.744 22.2684 475.018 22.6104C474.616 22.6393 474.21 22.6682 473.799 22.697C469.96 22.9659 466.092 23.2373 462.193 23.4583C457.906 23.7018 453.471 23.8875 449.143 23.9316C443.357 23.9913 437.638 24.1226 431.862 24.318C426.099 24.513 420.333 24.7707 414.564 25.0795C408.796 25.3882 403.024 25.7479 397.251 26.1463C391.477 26.5446 385.701 26.9815 379.923 27.4442C374.143 27.907 368.362 28.3955 362.577 28.8968C356.792 29.3982 351.004 29.9124 345.211 30.4268C341.373 30.7684 337.692 31.2582 333.888 31.8901C330.11 32.5186 326.336 33.2728 322.563 34.113C318.79 34.9535 315.019 35.8799 311.244 36.8555C307.47 37.8311 303.693 38.8561 299.905 39.895C296.116 40.9338 292.318 41.9865 288.496 43.0172C284.686 44.0447 280.808 45.0619 276.958 45.9993C273.522 46.8362 270.039 47.6409 266.585 48.406C263.123 49.1729 259.659 49.908 256.196 50.6218C252.732 51.3355 249.268 52.028 245.806 52.7093C242.344 53.3907 238.884 54.0611 235.428 54.7305C231.972 55.4001 228.52 56.0687 225.074 56.7467C221.625 57.4251 218.193 58.1107 214.756 58.8185C212.122 59.3609 209.473 59.9079 206.825 60.4463C204.173 60.9855 201.518 61.517 198.852 62.0328C196.186 62.5486 193.512 63.0485 190.828 63.5229C188.143 63.9974 185.448 64.4466 182.739 64.8592C180.03 65.2718 177.309 65.6478 174.569 65.9729C171.849 66.2963 169.031 66.5744 166.297 66.7725C164.597 66.8965 162.884 67.0136 161.168 67.1224C157.342 67.3645 153.533 67.5495 149.709 67.6708C144.161 67.8468 138.603 67.8882 133.037 67.7688C127.469 67.6492 121.894 67.3687 116.321 66.8968C110.749 66.4247 105.18 65.7612 99.6302 64.8708C94.0839 63.9807 88.5579 62.8642 83.0768 61.4813C78.3159 60.2811 73.5109 58.8543 68.8409 57.2196C68.1824 56.9892 67.5143 56.7496 66.838 56.5009C64.9531 55.81 62.8538 54.9291 60.8705 54.0078C58.9989 53.1405 57.1096 52.1919 55.2054 51.1748C53.3964 50.2084 51.5753 49.1804 49.7527 48.1038C47.9876 47.061 46.2201 45.9722 44.4599 44.8479C42.7289 43.7423 41.0063 42.6033 39.2958 41.4367C37.6046 40.2831 35.8867 39.0756 34.2441 37.8847C32.9039 36.9129 31.5618 35.9403 30.228 34.9659C28.873 33.9761 27.5268 32.9845 26.1999 31.9907C24.8385 30.9711 23.4974 29.9492 22.1876 28.926C20.8279 27.864 19.5019 26.8006 18.2209 25.7392C16.871 24.6208 15.5712 23.5047 14.3328 22.3981C13.0125 21.2187 11.7108 20.0022 10.5604 18.8731C9.4896 17.8068 8.841 16.937 8.21034 16.1491C7.53257 15.2836 6.92694 14.487 6.35296 13.7455C5.71252 12.917 5.1186 12.1622 4.56045 11.4808C3.90767 10.6832 3.30783 9.9909 2.76982 9.41425C2.08517 8.67878 1.50329 8.13754 1.06984 7.78781C1.05675 7.7772 1.04384 7.76666 1.03112 7.75618C0.0490812 6.98349 0.292078 6.63201 0.413936 5.9304C0.390025 5.24171 1.31912 4.84031 2.54818 5.79517C2.57902 5.81873 2.60995 5.84308 2.64093 5.86821C3.17587 6.30131 3.82162 6.90657 4.54926 7.68527C5.13289 8.30885 5.76704 9.04001 6.44602 9.86828C7.02526 10.5744 7.63433 11.3479 8.28248 12.186C8.86224 12.9347 9.4693 13.733 10.1304 14.5781C10.7408 15.3458 11.3765 16.1824 12.2589 17.065C13.3952 18.1806 14.6461 19.3514 15.9459 20.5137C17.1586 21.5985 18.4344 22.695 19.7624 23.7961C21.0224 24.8409 22.3294 25.8899 23.6728 26.9398C24.9667 27.9512 26.2943 28.9634 27.645 29.9753C28.9615 30.9617 30.2999 31.9479 31.6499 32.9343C32.9789 33.9054 34.3192 34.8767 35.6601 35.8491C37.2927 37.0329 38.9806 38.22 40.6561 39.3635C42.3478 40.5178 44.0508 41.6442 45.7603 42.7365C47.4994 43.8478 49.2439 44.9228 50.9832 45.9506C52.7802 47.0125 54.5726 48.0246 56.3482 48.9735C58.219 49.9731 60.0699 50.9023 61.8948 51.7482C63.844 52.653 65.8431 53.4921 67.6861 54.1681C68.2704 54.3828 68.8471 54.5901 69.4156 54.7901C74.0952 56.4366 78.8954 57.8662 83.685 59.0738C89.0915 60.4377 94.5484 61.5403 100.031 62.4197C105.517 63.2995 111.028 63.9557 116.547 64.4227C122.066 64.8894 127.593 65.1668 133.118 65.2844C138.64 65.4019 144.158 65.3597 149.67 65.1836C153.321 65.0669 156.96 64.8917 160.609 64.6639C162.465 64.5479 164.319 64.4211 166.162 64.285C168.871 64.0856 171.619 63.8088 174.314 63.4824C177.02 63.1548 179.711 62.7747 182.393 62.3563C185.075 61.9377 187.747 61.4809 190.412 60.9968C193.076 60.5128 195.732 60.0016 198.382 59.4725C201.032 58.9434 203.674 58.3968 206.316 57.8405C208.954 57.285 211.593 56.7193 214.223 56.1558C217.66 55.4197 221.097 54.7022 224.541 53.9918C227.984 53.2816 231.43 52.5792 234.878 51.8748C238.325 51.1704 241.773 50.4639 245.219 49.7455C248.666 49.0271 252.111 48.2968 255.552 47.5446C258.993 46.7925 262.431 46.0186 265.862 45.2128C269.291 44.4075 272.721 43.5686 276.131 42.6903C279.946 41.7079 283.754 40.6541 287.54 39.5774C291.33 38.4997 295.107 37.3962 298.885 36.3028C302.663 35.2094 306.441 34.1261 310.23 33.0887C314.018 32.0514 317.817 31.0597 321.635 30.1516C325.451 29.2436 329.285 28.4193 333.143 27.7202C337.002 27.0212 340.867 26.4499 344.769 26.049C350.553 25.4552 356.336 24.8629 362.12 24.2857C367.904 23.7086 373.69 23.1465 379.477 22.6136C385.264 22.0807 391.054 21.5768 396.846 21.1161C402.639 20.6553 408.434 20.2376 414.232 19.8765C420.031 19.5154 425.832 19.2111 431.635 18.9764C437.44 18.7416 443.241 18.5768 449.051 18.4934C453.32 18.4322 457.6 18.2404 461.857 17.9907C465.757 17.7621 469.65 17.4846 473.539 17.2123C473.903 17.1868 474.263 17.1618 474.621 17.1374C479.376 16.8114 483.582 16.5924 487.367 16.4898C492.208 16.3562 496.36 16.4066 500.086 16.5695C504.778 16.7764 508.796 17.148 512.684 17.5892C515.494 17.9107 518.248 18.2723 521.117 18.6909C522.415 18.8809 523.743 19.1006 525.127 19.3633C526.958 19.7123 528.92 20.0247 530.97 20.3036C531.061 20.3159 531.152 20.3282 531.243 20.3404C533.286 20.6146 535.322 20.8383 537.343 21.044C539.382 21.2514 541.407 21.4406 543.414 21.643C545.443 21.8477 547.455 22.0661 549.445 22.3283C551.463 22.5942 553.459 22.9055 555.425 23.2899C557.428 23.6818 559.386 24.1455 561.318 24.7122C563.621 25.3884 565.901 26.0469 568.149 26.6814C570.469 27.336 572.755 27.9654 575.004 28.5654C577.34 29.1887 579.636 29.7802 581.884 30.3361C584.24 30.9188 586.544 31.4624 588.789 31.9641C591.169 32.4962 593.482 32.981 595.718 33.4172C598.133 33.8888 600.438 34.2985 602.665 34.6591C607.693 35.4724 612.159 36.0331 616.011 36.4598C619.658 36.8617 622.719 37.135 625.08 37.3337C627.018 37.4962 628.491 37.6084 629.425 37.6856C629.456 37.6882 629.487 37.6908 629.517 37.6933ZM708.387 50.4974C710.842 50.8885 713.428 51.3148 716.12 51.7696C721.307 52.6456 726.887 53.6285 732.688 54.6581C738.055 55.6103 743.611 56.6017 749.222 57.578C754.721 58.535 760.274 59.4768 765.754 60.3562C769.747 60.9972 773.703 61.6055 777.563 62.1654C779.159 62.3969 780.742 62.6209 782.309 62.8365C785.201 63.2342 787.992 63.5562 790.745 63.8355C793.681 64.1332 796.528 64.3772 799.252 64.5897C802.272 64.825 805.141 65.022 807.815 65.1996C807.96 65.2092 808.105 65.2188 808.249 65.2283C811.19 65.4221 813.896 65.6266 816.416 65.8523C819.543 66.1319 822.383 66.4435 825.03 66.7897C828.099 67.1912 830.934 67.6406 833.624 68.1323C835.226 68.4257 836.787 68.7061 838.347 68.9758C838.436 68.9908 838.524 69.0058 838.612 69.0208C840.033 69.2651 841.458 69.5007 842.912 69.7276C845.838 70.1838 848.882 70.6062 852.266 70.9803C855.116 71.295 858.207 71.575 861.669 71.8017C863.862 71.9451 866.204 72.0669 868.728 72.1605C869.502 72.1892 870.292 72.2152 871.099 72.2385C874.048 72.3238 877.211 72.3721 880.541 72.3833C883.562 72.3935 886.72 72.3731 889.984 72.3254C892.851 72.2835 895.798 72.2343 898.804 72.1798C901.697 72.1273 904.643 72.07 907.623 72.0098C910.538 71.9509 913.484 71.8893 916.443 71.8267C917.819 71.7976 919.198 71.7683 920.577 71.739C920.592 71.739 920.607 71.739 920.622 71.739C922.168 71.7061 923.716 71.665 925.263 71.6171C928.214 71.5258 931.161 71.4101 934.083 71.2813C937.056 71.1502 940.004 71.0055 942.903 70.859C947.315 70.637 951.648 70.4952 955.755 70.4067C960.299 70.3104 964.598 70.2781 968.551 70.3141C970.096 70.3285 971.589 70.3539 973.022 70.3922C975.837 70.4675 978.586 70.5285 981.268 70.5649C985.661 70.625 989.877 70.6186 993.92 70.5172C998.315 70.4076 1002.51 70.1856 1006.49 69.8346C1010.91 69.4451 1014.99 68.9126 1018.93 68.2085C1021.88 67.6794 1024.66 67.1176 1027.35 66.5367C1030.3 65.9001 1033.1 65.2487 1035.76 64.6085C1038.74 63.8916 1041.54 63.1888 1044.17 62.5223C1047.19 61.7539 1050 61.0338 1052.58 60.3788C1055.71 59.5841 1058.52 58.885 1061.02 58.2881C1062.35 57.9727 1063.58 57.6852 1064.73 57.4253C1066.31 57.0673 1067.9 56.6919 1069.5 56.3042C1071.29 55.8714 1073.08 55.473 1074.9 55.075C1076.7 54.6826 1078.51 54.2938 1080.34 53.8836C1082.14 53.4778 1083.95 53.0517 1085.77 52.5815C1087.57 52.1152 1089.38 51.6058 1091.18 51.027C1092.96 50.4517 1094.74 49.8082 1096.5 49.065C1098.23 48.3315 1099.99 47.4738 1101.62 46.5198C1103.84 45.2249 1106.07 43.9266 1108.3 42.6201C1110.53 41.3125 1112.75 39.9965 1114.97 38.6644C1117.19 37.3267 1119.4 35.9732 1121.6 34.5969C1123.81 33.2094 1126 31.7989 1128.16 30.3568C1130.35 28.8971 1132.5 27.4056 1134.63 25.8702C1136.53 24.4914 1138.41 23.0776 1140.25 21.6194C1142.79 19.9327 1140.79 24.6248 1136.36 27.9248C1136.16 28.0767 1135.95 28.2255 1135.74 28.3705C1135.57 28.4921 1135.4 28.6125 1135.23 28.7328C1133.61 29.8775 1132.18 30.8536 1130.19 32.2204C1130.04 32.3234 1129.9 32.4249 1129.76 32.525C1127.11 34.3863 1125.09 35.7546 1123.23 36.9898C1123.22 36.9963 1123.21 37.0028 1123.2 37.0094C1122.12 37.7216 1119.76 39.2516 1116.53 41.1902C1114.56 42.3728 1112.27 43.7073 1109.78 45.1277C1107.65 46.3396 1105.37 47.6155 1103.03 48.9272C1101.35 49.8712 1099.39 50.7941 1097.55 51.5306C1095.71 52.2706 1093.85 52.9086 1091.99 53.474C1090.12 54.041 1088.26 54.5351 1086.43 54.9836C1084.56 55.4446 1082.72 55.8577 1080.94 56.247C1079.06 56.6594 1077.24 57.045 1075.53 57.4235C1073.62 57.8457 1071.88 58.2446 1070.24 58.6604C1067.98 59.2348 1065.98 59.7298 1064.3 60.11C1063.52 60.289 1062.68 60.4911 1061.81 60.7154C1059.37 61.3413 1056.6 62.1433 1053.46 63.0977C1050.93 63.8654 1048.17 64.7318 1045.15 65.671C1042.56 66.4749 1039.79 67.3322 1036.81 68.2144C1034.17 68.9955 1031.37 69.7961 1028.39 70.5851C1025.7 71.2973 1022.85 72.0066 1019.87 72.6635C1015.91 73.5411 1011.57 74.2693 1007.05 74.8005C1002.95 75.2835 998.647 75.6173 994.141 75.8123C990.011 75.9917 985.714 76.0545 981.251 76.0255C978.488 76.0078 975.662 75.9552 972.773 75.8775C971.373 75.8398 969.918 75.7837 968.416 75.7137C964.457 75.5299 960.17 75.2452 955.643 74.9694C951.564 74.722 947.303 74.4826 942.903 74.3609C940.01 74.2815 937.064 74.2169 934.083 74.1791C931.169 74.1422 928.223 74.1309 925.263 74.1564C923.853 74.1685 922.44 74.189 921.026 74.219C920.974 74.2201 920.921 74.2211 920.869 74.2221C919.394 74.2534 917.918 74.2848 916.443 74.316C913.49 74.3784 910.544 74.4399 907.623 74.4987C904.649 74.5586 901.702 74.6157 898.804 74.6679C895.804 74.7219 892.856 74.7707 889.984 74.8121C886.722 74.8592 883.547 74.8789 880.511 74.8679C877.178 74.856 874.003 74.807 871.034 74.7208C870.231 74.6975 869.443 74.6716 868.67 74.643C866.137 74.5492 863.776 74.4273 861.56 74.2835C858.092 74.0583 854.977 73.7802 852.106 73.468C848.687 73.0959 845.612 72.676 842.693 72.2259C840.886 71.947 839.14 71.6563 837.406 71.3545C837.325 71.34 837.243 71.3255 837.162 71.3109C835.885 71.0877 834.617 70.8586 833.338 70.6229C830.632 70.1242 827.855 69.6765 824.825 69.2738C822.196 68.9246 819.378 68.6109 816.256 68.3293C813.759 68.1037 811.066 67.8993 808.12 67.7051C807.97 67.6952 807.819 67.6852 807.668 67.6751C804.981 67.4968 802.107 67.2999 799.085 67.0652C796.342 66.852 793.478 66.6074 790.523 66.3088C787.751 66.0284 784.908 65.7012 782.001 65.3018C780.309 65.0693 778.598 64.8269 776.872 64.5755C773.107 64.0274 769.264 63.4355 765.389 62.8134C759.888 61.9303 754.324 60.9859 748.82 60.0277C743.195 59.0485 737.634 58.0556 732.268 57.1031C726.46 56.0721 720.881 55.0893 715.699 54.2149C713.107 53.7772 710.614 53.3664 708.243 52.9885C706.547 52.7177 705.202 51.942 705.24 51.2539C705.28 50.5663 706.689 50.2272 708.387 50.4974ZM711.36 35.3226C713.843 35.6153 716.32 35.9185 718.792 36.2303C724.382 36.9354 729.943 37.6841 735.474 38.4529C741.003 39.2216 746.503 40.0104 751.974 40.797C757.447 41.5838 762.891 42.3684 768.309 43.1292C773.769 43.8957 779.038 44.6163 784.499 45.3211C787.193 45.6673 789.605 45.9359 792.322 46.2075C794.982 46.4728 797.691 46.7122 800.447 46.9416C803.205 47.1714 806.01 47.3912 808.859 47.6187C811.711 47.8465 814.607 48.0821 817.544 48.3447C820.484 48.6077 823.466 48.8978 826.485 49.2361C829.456 49.5695 832.688 49.9745 835.658 50.4198C838.681 50.8792 841.497 51.283 844.497 51.6765C847.463 52.0667 850.443 52.4286 853.434 52.7661C856.432 53.1043 859.441 53.4181 862.459 53.7114C864.557 53.9151 866.66 54.109 868.766 54.2943C869.675 54.329 870.61 54.3627 871.568 54.3951C874.43 54.4918 877.504 54.576 880.748 54.6422C883.711 54.7025 886.754 54.7479 889.984 54.7781C892.853 54.8045 895.801 54.8324 898.804 54.8613C901.7 54.8892 904.646 54.9181 907.623 54.9476C910.541 54.9764 913.488 55.0058 916.443 55.0355C917.88 55.0499 919.318 55.0644 920.757 55.0788C920.975 55.0819 921.194 55.0849 921.412 55.088C922.697 55.1009 923.981 55.1138 925.263 55.1267C928.22 55.1564 931.167 55.1859 934.083 55.2149C937.061 55.2445 940.008 55.2735 942.903 55.3016C947.446 55.344 952.004 55.4737 956.119 55.6119C960.73 55.7672 965.013 55.9347 968.908 56.062C970.535 56.1155 972.094 56.1626 973.579 56.2019C976.238 56.2724 978.814 56.325 981.311 56.3522C985.539 56.3986 989.54 56.3709 993.323 56.249C997.432 56.1173 1001.28 55.8746 1004.89 55.5162C1008.99 55.0993 1012.22 54.6416 1015.9 53.9323C1018.71 53.3798 1021.14 52.8477 1023.7 52.2464C1026.45 51.5992 1029.09 50.9303 1031.62 50.2666C1034.44 49.5243 1037.13 48.7887 1039.67 48.0855C1042.59 47.2762 1045.33 46.5098 1047.87 45.8098C1050.95 44.9632 1053.74 44.2136 1056.26 43.5802C1057.73 43.2089 1059.11 42.8778 1060.39 42.5858C1062.02 42.2149 1063.52 41.8731 1064.88 41.5648C1067.16 41.0299 1069.31 40.5849 1070.96 40.2587C1073.24 39.8071 1075.03 39.4606 1076.57 39.1354C1078.61 38.7072 1080.2 38.3259 1081.72 37.9171C1082.51 37.7071 1083.27 37.4907 1084.06 37.258C1084.19 37.2192 1084.32 37.1804 1084.46 37.1414C1084.46 37.1368 1084.47 37.1323 1084.48 37.1277C1084.64 37.0468 1084.77 36.9869 1084.84 36.9574C1084.98 36.8974 1085.1 36.8552 1085.14 36.8393C1085.24 36.8027 1085.32 36.7758 1085.35 36.7659C1085.48 36.7255 1085.62 36.6814 1085.71 36.654C1085.87 36.6048 1086.09 36.5369 1086.37 36.4539C1087.43 36.1328 1089.16 35.578 1090.53 35.0689C1090.64 35.0284 1090.75 34.9883 1090.85 34.9488C1092.36 34.3639 1092.92 34.184 1094.1 33.6349C1094.53 33.4274 1094.94 33.2235 1095.37 33.0171C1095.55 32.9294 1095.73 32.8418 1095.91 32.7542C1097.36 32.0494 1098.92 31.2951 1100.99 30.2344C1101.22 30.1184 1101.45 29.9986 1101.69 29.8747C1103.17 29.1106 1104.5 29.0454 1104.68 29.7314C1104.85 30.4179 1103.8 31.5988 1102.3 32.3673C1102.29 32.374 1102.28 32.3807 1102.26 32.3873C1099.7 33.7032 1097.86 34.5967 1096.24 35.382C1096.06 35.4692 1095.88 35.5564 1095.7 35.6436C1095.59 35.6979 1095.48 35.7518 1095.37 35.8054C1094 36.4344 1093.24 36.7002 1091.54 37.3496C1091.53 37.3532 1091.52 37.3569 1091.51 37.3605C1089.93 37.9788 1088.5 38.466 1087.17 38.8962C1086.42 39.1387 1085.7 39.3619 1084.99 39.5737C1084.12 39.8332 1083.27 40.0754 1082.38 40.3117C1080.84 40.7233 1079.21 41.1143 1077.19 41.5458C1075.62 41.8798 1073.83 42.2332 1071.6 42.6791C1069.95 43.0107 1067.85 43.4465 1065.63 43.9697C1063.93 44.3581 1062.03 44.7977 1059.95 45.2722C1059.03 45.4812 1058.06 45.7128 1057.03 45.967C1054.56 46.5779 1051.76 47.3207 1048.64 48.1781C1046.11 48.8704 1043.37 49.6376 1040.41 50.4564C1037.87 51.1585 1035.17 51.8986 1032.31 52.6506C1029.77 53.3171 1027.1 53.9929 1024.31 54.6501C1021.74 55.255 1019.25 55.8011 1016.41 56.3594C1012.71 57.0769 1009.33 57.5588 1005.16 57.9816C1001.5 58.3462 997.594 58.5933 993.427 58.7272C989.606 58.8506 985.568 58.8788 981.304 58.8322C978.798 58.805 976.214 58.7524 973.549 58.6819C972.052 58.6424 970.483 58.5949 968.846 58.5411C964.941 58.4136 960.656 58.2461 956.058 58.0912C951.945 57.9531 947.425 57.8242 942.903 57.7817C940.007 57.7536 937.061 57.7246 934.083 57.6951C931.166 57.6661 928.219 57.6366 925.263 57.6069C923.976 57.594 922.688 57.581 921.399 57.5681C921.174 57.566 920.95 57.564 920.725 57.5619C919.297 57.5476 917.869 57.5332 916.443 57.5189C913.487 57.4892 910.54 57.4596 907.623 57.4305C904.646 57.4009 901.699 57.3718 898.804 57.3436C895.8 57.3144 892.853 57.2862 889.984 57.2595C886.749 57.2291 883.689 57.1833 880.719 57.1226C877.462 57.0559 874.376 56.9713 871.503 56.8742C870.546 56.8419 869.614 56.8083 868.706 56.7737C866.577 56.6924 864.454 56.6015 862.338 56.4993C859.288 56.352 856.252 56.1813 853.228 55.982C850.198 55.7824 847.182 55.5542 844.18 55.2922C841.141 55.0265 838.253 54.7415 835.201 54.3985C832.241 54.0638 829.079 53.7693 826.128 53.5346C823.134 53.2955 820.174 53.0976 817.249 52.9193C814.322 52.7409 811.43 52.582 808.574 52.4223C805.716 52.2627 802.895 52.1022 800.11 51.9221C797.325 51.7419 794.576 51.5421 791.866 51.305C789.112 51.0629 786.589 50.8053 783.856 50.4657C778.369 49.7811 773.032 49.033 767.557 48.1976C762.121 47.3676 756.671 46.4669 751.201 45.5099C745.748 44.5558 740.276 43.5457 734.779 42.4942C729.304 41.4469 723.805 40.3586 718.274 39.2443C715.929 38.772 713.579 38.295 711.222 37.8146C707.927 37.2885 704.718 36.7776 701.589 36.2856C695.714 35.3614 690.03 34.4908 684.711 33.723C684.357 33.6718 684.003 33.6209 683.649 33.5703C679.295 32.947 675.088 32.3782 671.099 31.8562C666.394 31.241 661.926 30.6814 657.645 30.1584C653.014 29.5932 648.603 29.0712 644.351 28.5814C639.811 28.0585 635.453 27.5728 631.202 27.117C628.27 26.8025 625.389 26.5024 622.535 26.2141C621.509 26.1103 620.047 25.9174 618.189 25.6292C614.986 25.1275 610.802 24.3952 605.47 23.2394C603.379 22.7838 601.298 22.3025 598.941 21.7161C597.649 21.3947 596.311 21.0509 594.929 20.6847C594.095 20.4639 593.245 20.2345 592.378 19.9967C590.278 19.421 588.08 18.795 585.785 18.1199C584.369 17.7033 582.915 17.268 581.426 16.8147C580.681 16.5879 579.927 16.3564 579.163 16.1206C577.017 15.4575 574.8 14.7592 572.51 14.0281C570.341 13.3356 568.121 12.6186 565.819 11.8706C563.697 11.1669 560.988 10.4214 558.702 9.91801C556.406 9.40298 554.112 8.98835 551.841 8.6408C549.645 8.30463 547.471 8.03072 545.33 7.78513C543.254 7.547 541.208 7.33537 539.201 7.11924C537.835 6.97216 536.487 6.82299 535.159 6.66225C534.578 6.59188 534.014 6.52104 533.464 6.44912C531.459 6.18258 529.903 5.95308 528.132 5.62368C527.445 5.49203 526.757 5.36669 526.064 5.24709C521.963 4.5381 517.975 4.0774 514.008 3.78173C509.726 3.46434 505.264 3.31295 500.163 3.33639C496.145 3.35558 491.73 3.49125 486.727 3.75561C482.936 3.95428 478.806 4.22909 474.27 4.54522C474.084 4.55814 473.897 4.57111 473.71 4.58413C469.741 4.85925 465.495 5.16095 461.085 5.40462C457.062 5.62508 453.107 5.78931 448.837 5.828C443.133 5.87805 437.091 6.0068 431.092 6.20397C425.207 6.39666 419.267 6.65664 413.408 6.96461C407.404 7.27986 401.484 7.64494 395.793 8.02992C389.618 8.44756 383.71 8.88794 378.25 9.31136C372.918 9.72501 368.012 10.1221 363.696 10.4721C362.691 10.5536 361.718 10.6325 360.775 10.7088C353.293 11.3159 347.73 11.7526 343.359 12.0738C340.559 12.2826 337.99 12.5551 335.87 12.806C334.206 13.0028 332.753 13.1927 331.424 13.3798C331.145 13.4191 330.872 13.4583 330.602 13.4974C327.526 13.9481 325.018 14.3733 321.859 15.0101C320.638 15.2577 319.439 15.5113 318.263 15.7691C314.057 16.6919 310.125 17.6668 306.344 18.6625C302.366 19.7113 298.556 20.785 294.788 21.8734C291.033 22.9583 287.322 24.0592 283.536 25.1667C279.931 26.2198 276.392 27.2456 272.531 28.2921C269.337 29.1556 266.128 29.9919 262.615 30.8686C260.59 31.3739 258.497 31.8845 256.326 32.4024C254.692 32.7921 253.148 32.5792 252.884 31.9358C252.62 31.2918 253.732 30.4607 255.359 30.0732C257.68 29.5213 259.911 28.9778 262.065 28.44C265.56 27.5678 268.737 26.7397 271.928 25.8776C275.762 24.8386 279.263 23.824 282.87 22.7711C286.635 21.6705 290.344 20.5713 294.11 19.4841C297.876 18.3968 301.698 17.3201 305.699 16.2657C309.497 15.2653 313.457 14.2833 317.697 13.3522C318.934 13.0807 320.197 12.8135 321.485 12.553C324.621 11.9216 327.209 11.4836 330.165 11.0497C330.625 10.9826 331.093 10.9161 331.575 10.8493C332.904 10.6658 334.326 10.4827 335.934 10.2958C337.995 10.0554 340.454 9.79949 343.109 9.60157C347.444 9.2841 352.996 8.84925 360.531 8.23826C361.518 8.15831 362.539 8.07556 363.597 7.98976C367.877 7.6429 372.738 7.24957 378.022 6.83958C383.487 6.41573 389.404 5.97445 395.594 5.55566C401.296 5.16982 407.229 4.80365 413.249 4.48732C419.125 4.17831 425.082 3.9173 430.986 3.72376C437.001 3.52579 443.082 3.39595 448.795 3.34577C453.037 3.30718 456.923 3.14605 460.933 2.92659C465.321 2.68426 469.56 2.38308 473.531 2.10775C473.692 2.0965 473.854 2.08528 474.014 2.07411C478.596 1.75458 482.77 1.47642 486.602 1.27555C491.654 1.00856 496.113 0.871573 500.177 0.852006C505.34 0.828325 509.865 0.980125 514.246 1.30504C518.064 1.59145 521.877 2.01922 525.933 2.7003C526.854 2.85464 527.76 3.01772 528.664 3.19119C528.664 3.19115 528.664 3.19118 528.664 3.19117C530.403 3.51283 531.87 3.72591 533.858 3.99008C534.248 4.04101 534.646 4.09153 535.055 4.14186C536.513 4.32184 538.007 4.48737 539.53 4.65127C541.528 4.86631 543.578 5.07851 545.671 5.31892C547.829 5.56691 550.033 5.84506 552.27 6.18846C554.584 6.54354 556.934 6.96897 559.295 7.49991C561.63 8.0142 564.48 8.80126 566.642 9.52095C568.944 10.2688 571.158 10.9836 573.321 11.6741C575.607 12.4035 577.816 13.0992 579.953 13.759C580.572 13.9504 581.186 14.1387 581.793 14.324C583.421 14.8209 585.005 15.2957 586.542 15.7478C588.827 16.4195 591.012 17.0406 593.093 17.6107C593.802 17.8049 594.499 17.9933 595.184 18.1756C596.721 18.5851 598.194 18.9642 599.603 19.314C601.97 19.902 604.008 20.3712 606.065 20.8185C611.647 22.0247 615.768 22.7285 618.682 23.1766C619.967 23.3714 620.974 23.5039 621.691 23.5784C624.948 23.9167 628.248 24.2693 631.619 24.6389C635.851 25.1029 640.197 25.5936 644.712 26.1173C648.968 26.6111 653.375 27.1338 657.98 27.6964C662.279 28.222 666.751 28.7819 671.436 29.3944C675.544 29.9317 679.881 30.5189 684.333 31.1581C684.581 31.1937 684.828 31.2294 685.076 31.2652C690.435 32.039 696.143 32.915 701.992 33.8355C705.046 34.3162 708.168 34.8132 711.36 35.3226ZM161.432 48.0129C163.088 47.9027 164.581 48.3518 164.736 49.0291C164.893 49.7057 163.651 50.3574 161.979 50.4704C157.117 50.7996 152.993 51.0061 149.452 51.1445C146.616 51.2548 144.153 51.3213 141.963 51.3623C138.648 51.4234 135.96 51.4278 133.567 51.4011C129.379 51.3481 126.087 51.2169 121.936 50.9003C120.556 50.7933 119.181 50.6756 117.814 50.547C112.519 50.0494 107.332 49.3877 102.299 48.5538C97.0594 47.6862 91.989 46.6316 87.1405 45.3978C83.1751 44.3894 79.3827 43.267 75.8097 42.0603C74.7152 41.6908 73.6117 41.3038 72.5105 40.9015C70.7936 40.2702 69.3571 39.6639 67.7112 38.9179C66.0542 38.1633 64.4176 37.3552 62.8137 36.5191C61.1397 35.6463 59.5017 34.743 57.91 33.8293C56.2337 32.8669 54.6074 31.8922 53.0378 30.9204C51.3661 29.8853 49.7597 28.8543 48.2191 27.8369C46.543 26.7297 45.008 25.6823 43.4786 24.6101C42.0631 23.6177 40.7204 22.6763 39.4556 21.7817C38.0523 20.7894 36.7443 19.8542 35.5338 18.9735C34.1395 17.9595 32.8747 17.0179 31.7397 16.1511C31.121 15.6787 30.5409 15.2286 29.999 14.8018C29.1876 14.1629 28.633 13.4205 28.4588 12.8335C28.3611 12.5052 28.3815 12.2253 28.5393 12.037C28.6914 11.8563 28.9504 11.7835 29.2744 11.8053C29.8897 11.8471 30.7393 12.228 31.5547 12.8695C32.0749 13.279 32.6316 13.7109 33.2253 14.1644C34.3444 15.0194 35.5953 15.951 36.9793 16.9577C38.1792 17.8308 39.479 18.7604 40.8778 19.7496C42.1375 20.6407 43.478 21.5806 44.8949 22.5741C46.4145 23.6394 47.9192 24.6662 49.5796 25.7634C51.1015 26.7685 52.6882 27.787 54.3383 28.8088C55.8868 29.7676 57.4902 30.7287 59.1404 31.6763C60.7066 32.5754 62.3161 33.463 63.9563 34.3183C65.527 35.1371 67.1256 35.9264 68.735 36.6594C70.3468 37.3893 71.6864 37.9554 73.3578 38.5711C74.372 38.9415 75.3845 39.2976 76.3862 39.6375C79.964 40.852 83.7495 41.9762 87.7481 42.9931C92.5211 44.2073 97.5218 45.2475 102.699 46.1045C107.666 46.9272 112.795 47.5816 118.04 48.0745C119.367 48.1993 120.703 48.3139 122.044 48.4184C126.191 48.7352 129.398 48.8634 133.648 48.9153C135.82 48.9384 138.266 48.9358 141.257 48.8865C143.598 48.8472 146.272 48.7785 149.413 48.6556C152.821 48.5218 156.793 48.3234 161.432 48.0129Z" fill="#F2ECAC"/>
</svg>
