<svg width="319" height="37" viewBox="0 0 319 37" fill="none" xmlns="http://www.w3.org/2000/svg">
<path d="M8.50676 25.9698C11.4781 26.4281 15.1153 26.1159 17.9215 26.468C17.961 26.473 18.0005 26.478 18.0399 26.4831C19.1903 26.6284 20.3579 26.8155 21.7619 27.0161C21.9407 27.0416 22.1239 27.068 22.3109 27.0937C23.9697 27.3225 26.0038 27.5663 28.7053 27.7486C37.7957 28.3094 44.0023 26.7901 45.9424 26.4164C49.8134 25.6123 53.8994 25.2999 59.0202 25.4435C59.4875 25.4582 59.9624 25.4798 60.446 25.5048C60.8386 25.5251 61.1329 25.9537 61.1072 26.4587C61.0812 26.9641 60.7557 27.354 60.3758 27.3343C59.9158 27.3103 59.4638 27.2917 59.0194 27.2774C59.0174 27.2773 59.0154 27.2773 59.0134 27.2772C53.9945 27.1341 50.0408 27.437 46.2976 28.2153C44.332 28.5922 38.0315 30.1474 28.6183 29.5731C25.8586 29.3879 23.7733 29.1411 22.0772 28.9079C21.8912 28.8823 21.7098 28.8563 21.5334 28.8312C21.5292 28.8305 21.5251 28.8298 21.5209 28.8292C20.0855 28.6245 18.9461 28.4409 17.8251 28.2996C17.8012 28.297 17.7774 28.2944 17.7535 28.2918C14.8628 27.9308 11.2141 28.2379 8.26142 27.784C7.6995 27.699 7.30324 27.2168 7.3788 26.7171C7.45457 26.2174 7.96025 25.8875 8.50676 25.9698ZM179.699 29.0938C182.149 28.4595 185.399 28.5867 188.267 28.9326C191.155 29.281 193.769 29.8636 194.999 30.2143C196.201 30.5573 197.541 30.6821 199.143 30.7684C199.511 30.7881 199.892 30.8058 200.286 30.824C201.588 30.8842 203.038 30.9502 204.63 31.1105C210.48 31.6993 214.317 31.7206 217.055 31.6636C217.618 31.6518 218.143 31.6357 218.633 31.6204C218.634 31.6204 218.635 31.6204 218.636 31.6204C220.489 31.5625 221.871 31.5136 223.147 31.7064C225.419 32.0489 227.279 32.3451 229.538 32.9349C232.653 33.7508 237.086 33.4929 239.938 32.7475C240.094 32.7068 240.254 32.6638 240.416 32.6212C242.484 32.0769 245.023 31.4022 248.843 30.7296C252.017 30.1692 254.802 29.9597 257.279 29.8203C257.989 29.7803 258.667 29.7475 259.318 29.7126C260.961 29.6245 262.434 29.533 263.809 29.3306C272.31 28.0677 277.366 27.4846 280.497 27.4284C282.957 27.362 284.158 27.6401 285.171 27.8223C285.469 27.8783 285.734 27.9289 285.983 27.9612C288.204 28.2462 290.294 28.1852 292.99 27.9481C293.59 27.8944 294.222 27.8304 294.895 27.7539C297.149 27.4973 298.854 26.8963 300.145 26.2989C300.712 26.0368 301.204 25.7757 301.666 25.5206C301.674 25.5156 301.683 25.5107 301.691 25.5057C301.756 25.4701 301.82 25.4353 301.883 25.3999C301.931 25.3733 301.978 25.3447 302.026 25.318C302.043 25.3015 302.058 25.2887 302.069 25.2785C302.078 25.2704 302.085 25.2643 302.09 25.2603C302.091 25.2592 302.091 25.2581 302.092 25.257C302.174 25.1856 302.251 25.1388 302.267 25.1292C302.295 25.1122 302.32 25.0993 302.333 25.0923C302.4 25.0553 302.488 25.0131 302.547 24.9854C302.7 24.9141 302.966 24.7935 303.379 24.6011C303.729 24.416 304.059 24.2154 304.466 23.957C304.492 23.9405 304.517 23.924 304.543 23.9075C304.94 23.6535 305.403 23.3523 305.985 22.971C306.508 22.6278 307.204 22.6446 307.541 23.0302C307.874 23.4176 307.668 24.0637 307.121 24.4254C306.551 24.8017 306.099 25.1004 305.684 25.3673C305.658 25.3844 305.632 25.4015 305.606 25.4185C305.173 25.6955 304.761 25.9496 304.304 26.1902C304.151 26.2706 303.992 26.3499 303.842 26.4218C303.578 26.5619 303.283 26.7302 302.93 26.9287C302.859 26.9685 302.785 27.0083 302.71 27.0499C302.23 27.3171 301.67 27.6189 301.03 27.9163C299.537 28.6115 297.581 29.293 295.077 29.5749C294.422 29.6488 293.799 29.7122 293.2 29.7661C290.445 30.0102 288.181 30.0776 285.843 29.7702C285.523 29.7278 285.215 29.6687 284.889 29.6063C283.918 29.4202 282.884 29.191 280.601 29.2496C277.605 29.3021 272.609 29.8744 264.106 31.1389C262.654 31.3529 261.073 31.4506 259.392 31.5405C258.75 31.5748 258.093 31.6098 257.422 31.6477C254.97 31.7861 252.257 31.9904 249.177 32.5345C245.423 33.1955 242.942 33.8538 240.875 34.3981C240.803 34.4173 240.732 34.4365 240.661 34.4558C240.572 34.479 240.484 34.5021 240.397 34.5248C237.345 35.3227 232.609 35.6157 229.157 34.7116C226.991 34.1461 225.205 33.8607 222.94 33.5193C221.826 33.3511 220.639 33.3936 218.819 33.4499C218.308 33.4657 217.746 33.4808 217.123 33.4939C214.329 33.5522 210.425 33.5313 204.501 32.9354C202.957 32.7799 201.569 32.7167 200.272 32.6568C199.87 32.6381 199.475 32.6191 199.088 32.5983C197.477 32.5116 195.98 32.3835 194.589 31.9869C193.447 31.6609 190.916 31.0929 188.107 30.754C185.278 30.4127 182.274 30.3195 180.121 30.8766C179.897 30.9346 179.671 30.9917 179.446 31.0494C177.504 31.546 175.528 32.0551 173.935 32.9275C166.787 38.4152 154.171 36.3329 145.529 36.0634C145.416 36.0595 145.303 36.0556 145.19 36.0517C135.259 35.7295 127.851 35.6212 125.33 35.5563C125.212 35.5536 125.105 35.5513 125.008 35.5489C124.922 35.5468 124.845 35.5458 124.776 35.544C123.747 35.5165 122.833 35.5489 121.873 35.5786C121.82 35.5803 121.768 35.5819 121.716 35.5836C120.701 35.6141 119.633 35.6366 118.373 35.5654C113.685 35.2999 109.82 35.0696 106.459 34.8173C105.836 34.7704 105.23 34.721 104.639 34.6718C104.637 34.6716 104.636 34.6714 104.634 34.6712C102.037 34.4548 99.7232 34.2136 97.5283 33.885C93.5283 33.2827 90.7934 32.8629 88.6514 32.5457C87.9799 32.4454 87.3613 32.3523 86.775 32.261C85.5067 32.0631 84.4006 31.875 83.2665 31.6178C81.1571 31.1394 79.0823 30.6953 77.0931 30.2194C76.9163 30.1771 76.7408 30.1337 76.5658 30.0911C74.4498 29.5899 72.3322 28.9287 70.9315 28.532C70.5864 28.4316 70.4263 27.9619 70.5631 27.4747C70.6994 26.9881 71.095 26.6707 71.4548 26.7755C72.8854 27.1815 74.8816 27.8058 76.9675 28.3016C77.1403 28.3438 77.3148 28.3848 77.4899 28.4267C79.4354 28.8922 81.5138 29.3414 83.6336 29.8227C84.712 30.0676 85.7433 30.2436 86.9705 30.4359C87.5567 30.5276 88.1843 30.6217 88.8833 30.7263C91.0315 31.0451 93.7684 31.4645 97.764 32.067C99.9095 32.3887 102.171 32.6265 104.742 32.8415C105.332 32.8907 105.938 32.9385 106.563 32.9856C109.904 33.2369 113.758 33.4678 118.44 33.7337C119.624 33.8006 120.63 33.7806 121.635 33.7505C121.691 33.749 121.747 33.7476 121.804 33.7461C122.75 33.7168 123.71 33.6818 124.792 33.7108C124.936 33.7147 125.12 33.7203 125.342 33.7254C127.855 33.7902 135.255 33.8978 145.209 34.2211C145.24 34.2224 145.271 34.2237 145.302 34.2251C151.97 34.4468 155.657 34.5597 158.436 34.0988C160.633 33.7336 162.279 33.644 163.629 33.6039C163.887 33.5962 164.13 33.5891 164.362 33.5835C165.365 33.5598 166.156 33.5422 166.946 33.4201C169.339 33.0513 171.054 32.439 173.153 31.2886C174.932 30.3136 177.111 29.7538 179.022 29.2666C179.025 29.2659 179.028 29.2652 179.03 29.2645C179.257 29.2066 179.48 29.1502 179.699 29.0938ZM311.624 18.0967C312.035 17.864 312.594 18.016 312.853 18.4492C313.114 18.8827 312.973 19.4359 312.562 19.6691C311.58 20.224 310.704 20.7161 310.046 21.1068C309.789 21.2597 309.024 21.2628 308.775 20.8203C308.486 20.4068 308.764 19.7427 309.044 19.5752C309.747 19.1553 310.644 18.651 311.624 18.0967ZM177.875 19.9543C178.335 19.8583 178.787 20.1852 178.884 20.6821C178.98 21.1786 178.685 21.658 178.226 21.7539C177.984 21.8046 177.584 21.8969 177.047 22.0219C173.169 22.9181 162.169 25.5073 150.531 26.4213C149.551 26.4954 148.666 26.5679 147.83 26.6368C144.238 26.927 141.364 28.2683 134.443 28.1663C119.904 27.9238 105.162 26.6023 90.7532 23.2012C83.5835 21.6751 76.3165 18.4753 69.9879 17.1684C63.337 15.7926 56.3295 15.8753 49.3412 16.6919C41.2582 17.6289 33.0366 18.8162 24.4536 19.1649C17.3017 19.7332 3.92019 17.218 0.97281 15.976C0.495239 15.8286 0.229433 15.3087 0.377998 14.8255C0.526576 14.3423 1.01788 14.0742 1.4771 14.2163C4.29209 15.4076 17.2465 17.8876 24.3002 17.337C32.7556 16.9998 40.954 15.8196 49.1133 14.8717C56.1922 14.0463 63.3536 13.7978 70.3493 15.0187C77.2585 16.2444 84.177 19.074 91.3105 20.3123C105.552 23.1155 120.07 23.8743 134.516 24.1152C141.314 24.2154 144.086 25.1007 147.662 24.8119C148.5 24.7428 149.389 24.6689 150.378 24.5941C161.86 23.6933 172.723 21.1391 176.647 20.2331C177.201 20.1043 177.618 20.008 177.875 19.9543ZM199.678 21.0577C204.909 20.9898 212.331 21.3048 218.815 21.4802C221.977 21.5676 224.917 21.6264 227.269 21.6217C230.913 21.6134 233.217 21.9772 235.509 22.3293C235.534 22.3329 235.558 22.3365 235.583 22.3401C237.873 22.6886 240.174 23.0247 243.884 22.8817C247.626 22.737 252.776 22.0768 257.933 21.2567C257.937 21.2563 257.941 21.2559 257.945 21.2555C263.082 20.446 268.125 18.5419 271.848 18.0386C284.873 16.1438 293.087 15.8593 297.282 15.1633C301.052 14.7271 304.346 12.2763 307.646 10.3297C310.978 8.22361 314.38 6.52596 317.693 3.27536C318.631 2.56479 318.971 5.03229 317.337 6.24368C317.283 6.28768 317.229 6.33086 317.175 6.37382C316.659 6.78484 316.211 7.11197 315.612 7.56286C314.771 8.24366 314.162 8.70823 313.605 9.12391C312.036 10.3057 302.253 16.5269 297.598 16.9586C293.424 17.653 285.787 20.1036 272.435 22.0475C268.686 22.555 263.422 22.2476 258.237 23.0659C258.223 23.0681 258.209 23.0702 258.195 23.0724C253.044 23.8914 247.817 24.5632 243.994 24.7112C240.131 24.8605 237.715 24.5061 235.386 24.152C235.363 24.1483 235.341 24.1446 235.318 24.141C233.038 23.7911 230.832 23.4435 227.31 23.4517C224.898 23.4568 221.915 23.3998 218.724 23.3113C212.25 23.1353 204.92 22.8215 199.728 22.8891C199.26 22.8951 198.868 22.4893 198.855 21.9835C198.841 21.4779 199.21 21.0641 199.678 21.0577ZM199.936 9.6504C214.574 7.81437 228.91 8.38643 242.993 9.72962C246.644 9.59237 251.721 9.37894 256.757 9.01622C256.814 9.01278 256.871 9.00933 256.927 9.00586C261.9 8.65214 266.868 8.13445 270.303 7.67329C276.297 6.87352 282.213 5.87403 285.86 5.41983C289.58 4.91842 291.711 4.56135 293.234 4.49771C296.07 4.33739 296.479 3.99033 297.429 3.41495C297.457 3.39778 297.485 3.38026 297.514 3.3624C297.515 3.35993 297.516 3.35745 297.517 3.35497C297.539 3.31206 297.562 3.28074 297.575 3.26545C297.6 3.23432 297.624 3.21291 297.633 3.20486C297.654 3.1864 297.673 3.17261 297.685 3.16477C297.723 3.13719 297.769 3.10682 297.799 3.08773C298.067 2.91666 299.094 2.31955 299.769 1.99372C300.483 1.64314 300.979 1.45966 301.494 1.27397C301.547 1.25531 301.599 1.23685 301.65 1.21871C302.109 1.05549 302.599 0.883898 303.243 0.619728C303.635 0.459205 304.123 0.697086 304.351 1.14553C304.578 1.59411 304.446 2.09038 304.043 2.25731C303.345 2.54542 302.815 2.73215 302.347 2.90081C302.294 2.91935 302.242 2.93794 302.19 2.95659C301.691 3.13788 301.248 3.30682 300.622 3.61335C299.777 4.06689 298.846 4.6799 298.489 4.9144C297.422 5.56683 296.828 6.03292 293.652 6.2524C292.107 6.33775 289.906 6.71546 286.173 7.22196C282.503 7.68342 276.711 8.66107 270.591 9.4811C267.111 9.94904 262.109 10.4708 257.107 10.8275C257.049 10.8319 256.99 10.8363 256.931 10.8407C251.861 11.2067 246.762 11.4189 243.102 11.5569C228.846 12.0995 214.671 13.0073 199.987 11.4818C197.281 11.5182 194.802 11.5084 192.501 11.4975C185.73 11.4644 180.496 11.4333 175.484 12.4821C174.386 12.7125 171.508 12.8802 167.33 13.1103C166.107 13.178 164.767 13.2506 163.323 13.3341C159.798 13.5368 155.558 13.8121 150.88 14.1668C149.9 14.2409 149.02 14.3134 148.184 14.3825C144.614 14.6734 141.792 14.9283 135.036 14.8333C126.71 14.7602 113.034 13.6963 105.991 12.4336C102.449 11.839 100.497 11.3584 99.1239 11.0015C98.7411 10.9011 98.4062 10.8081 98.0994 10.7231C97.2982 10.5007 96.6797 10.3244 95.864 10.1271C89.8715 8.63169 86.5281 8.08409 79.1928 6.03984C78.6812 5.90414 78.3477 5.39863 78.4596 4.9049C78.5714 4.41128 79.101 4.11802 79.6272 4.25669C87.0711 6.33338 90.2164 6.82833 96.2404 8.33523C97.0801 8.53879 97.7331 8.72632 98.5381 8.95005C98.8366 9.03288 99.1562 9.12081 99.5147 9.21501C100.847 9.56222 102.755 10.0335 106.24 10.6198C113.192 11.8688 126.754 12.9271 135.029 13.0004C141.697 13.0946 144.462 12.8472 148.017 12.5576C148.852 12.4884 149.738 12.4143 150.726 12.3396C155.408 11.9845 159.674 11.7066 163.203 11.5033C164.647 11.4198 165.986 11.3465 167.206 11.2789C171.477 11.0439 174.186 10.8808 175.128 10.683C180.322 9.59641 185.786 9.63021 192.617 9.66412C194.892 9.67503 197.319 9.68564 199.936 9.6504ZM48.8474 2.6147C49.344 2.56038 49.7983 2.9274 49.8591 3.4301C49.9196 3.93277 49.5691 4.38139 49.0783 4.43506C46.4849 4.72043 44.6679 4.98436 43.252 5.19028C40.6388 5.57572 39.4008 5.77649 37.5402 5.93541C32.7435 6.35092 28.2622 6.7413 24.3334 6.90616C17.7953 7.20942 12.8166 6.78359 10.2605 6.32325C9.85808 6.25319 9.59918 5.78611 9.67921 5.28695C9.75961 4.78818 10.1351 4.44396 10.5218 4.51142C12.9738 4.95437 17.7598 5.37348 24.1807 5.08075C28.0578 4.92048 32.5189 4.53116 37.3474 4.11267C39.1531 3.95838 40.3232 3.77019 42.8896 3.39052C44.3107 3.18335 46.158 2.91142 48.8474 2.6147Z" fill="#F2ECAC"/>
</svg>
